<svg width="20" height="20" viewBox="0 0 20 20" fill="none" xmlns="http://www.w3.org/2000/svg">
<mask id="mask0_6_1746" style="mask-type:alpha" maskUnits="userSpaceOnUse" x="0" y="0" width="20" height="20">
<rect width="20" height="20" fill="#D9D9D9"/>
</mask>
<g mask="url(#mask0_6_1746)">
<path d="M10.0001 17.5L8.79175 16.4167C7.38897 15.1528 6.22925 14.0625 5.31258 13.1459C4.39591 12.2292 3.66675 11.4063 3.12508 10.6771C2.58341 9.94796 2.20494 9.27782 1.98966 8.66671C1.77439 8.0556 1.66675 7.4306 1.66675 6.79171C1.66675 5.48615 2.10425 4.39587 2.97925 3.52087C3.85425 2.64587 4.94453 2.20837 6.25008 2.20837C6.9723 2.20837 7.6598 2.36115 8.31258 2.66671C8.96536 2.97226 9.52786 3.40282 10.0001 3.95837C10.4723 3.40282 11.0348 2.97226 11.6876 2.66671C12.3404 2.36115 13.0279 2.20837 13.7501 2.20837C15.0556 2.20837 16.1459 2.64587 17.0209 3.52087C17.8959 4.39587 18.3334 5.48615 18.3334 6.79171C18.3334 7.4306 18.2258 8.0556 18.0105 8.66671C17.7952 9.27782 17.4167 9.94796 16.8751 10.6771C16.3334 11.4063 15.6042 12.2292 14.6876 13.1459C13.7709 14.0625 12.6112 15.1528 11.2084 16.4167L10.0001 17.5Z" fill="#F34040"/>
</g>
</svg>
